<svg xmlns="http://www.w3.org/2000/svg" version="1.1" xmlns:xlink="http://www.w3.org/1999/xlink" xmlns:svgjs="http://svgjs.dev/svgjs" width="100%" height="100%" viewBox="0 0 1000 600"><rect width="1000" height="600" x="0" y="0" fill="#ffffff"/><g><rect width="333.3333333333333" height="333.3333333333333" y="146.88921590470392" fill="#000000" transform="matrix(1.0026712811199014,0,0,1.0026712811199014,0,-14.39347538991855)" x="124.66700744628906"/><path d="M317.6223364086617 270.1551814577009L317.6223364086617 270.1551814577009Q321.5493575047858 270.1551814577009 324.0927649504621 271.4167115507563Q326.63617239613836 272.65789438424633 328.1418696039787 274.9978292342686Q329.64756681181905 277.31741682472534 330.2172900796505 280.53228383606006Q330.78701334748206 283.7471508473949 330.78701334748206 287.6131301648228L330.78701334748206 287.6131301648228Q330.78701334748206 290.8279971761576 330.46145719443547 294.44980937880064Q330.13590104138893 298.07162158144365 329.789997628777 301.9172536393062L329.789997628777 301.9172536393062Q328.85402368876805 310.78865880982494 328.2436059018058 319.3752023464281Q327.63318811484345 327.96174588303114 327.63318811484345 336.18203874745683L327.63318811484345 336.18203874745683Q327.63318811484345 345.41969459015303 328.5284675357215 352.82609707196235Q329.4237469565996 360.2324995537717 331.45847291314055 366.2349411255677Q333.4931988696816 372.23738269736367 336.87084395753965 376.99864143566964Q340.22814178583235 381.7599001739756 345.17252586022704 385.6258794914035L345.17252586022704 385.6258794914035Q345.9457217237126 386.2566445379312 346.3730141745862 386.6635897292394Q346.8003066254598 387.0501876609822 346.8003066254598 387.6199109288137L346.8003066254598 387.6199109288137Q346.8003066254598 388.5558848688226 345.51842927283894 388.5558848688226L345.51842927283894 388.5558848688226Q344.80627518804965 388.5558848688226 343.95169028630244 388.27102323490686L343.95169028630244 388.27102323490686Q339.00730621190775 386.39907535488913 333.7170187249011 382.83830493094234Q328.42673123789444 379.2571872474302 324.0520704313313 373.5396073095499Q319.6977568843335 367.8016801121042 316.8694878047415 359.62208176680934Q314.04121872514946 351.422136161949 314.04121872514946 340.27183792010425L314.04121872514946 340.27183792010425Q314.04121872514946 332.68231010220626 314.5499002142847 325.2352131012662Q315.03823444385455 317.8084633598915 315.6486522308169 311.19560400113323Q316.2590700177792 304.56239738280954 316.76775150691446 299.02794278101794Q317.25608573648424 293.49348817922635 317.25608573648424 289.54611982353674L317.25608573648424 289.54611982353674Q317.25608573648424 287.40965756916876 316.91018232387233 286.1888219952441Q316.54393165169495 284.96798642131955 316.01490290299427 284.3575686343572Q315.4858741542936 283.7471508473949 314.7533728099388 283.60472003043697Q314.04121872514946 283.46228921347915 313.41045367862176 283.46228921347915L313.41045367862176 283.46228921347915Q312.5355215173091 283.46228921347915 311.6809366155619 284.03201248131063Q310.8263517138147 284.6220830087075 309.9717668120675 286.1888219952441Q309.1171819103202 287.7555609817807 308.2829442681384 290.4413992444148Q307.469053885522 293.127237507049 306.75689980073264 297.42050927535047L306.75689980073264 297.42050927535047Q306.2482183115974 300.0656530188538 305.63780052463505 303.7892015193239Q305.0273827376728 307.512750019794 304.2745341337526 311.7246327498338Q303.52168552983244 315.9365154798738 302.76883692591224 320.3518708055678Q302.0363355815575 324.7468788716963 301.34452875633355 328.67389996782055Q300.673069190675 332.62126832351004 300.0626514037127 335.795440815714Q299.4522336167504 338.969613307918 299.0249411658768 340.76017214967413L299.0249411658768 340.76017214967413Q297.2343823241207 348.3496999675721 294.4061132445287 351.8494286128227Q291.57784416493666 355.36950451763863 287.2845723966351 355.36950451763863L287.2845723966351 355.36950451763863Q284.151094423562 355.36950451763863 282.31984106267504 353.92484908849445Q280.4885877017881 352.50054091891576 279.57296102134467 350.3437314049823Q278.6369870813358 348.2072691506142 278.4131672261163 345.66386170493803Q278.2096946304622 343.12045425926175 278.2096946304622 340.90260296663206L278.2096946304622 340.90260296663206Q278.2096946304622 326.53743771345245 278.55559804307416 312.72164846853894Q278.92184871525154 298.92620648319087 278.92184871525154 285.04937545958114L278.92184871525154 285.04937545958114Q278.92184871525154 279.90151878953236 278.6369870813358 275.81171961688494Q278.35212544742006 271.7422677038029 277.4161515074112 268.9139986242109Q276.50052482696776 266.08572954461886 274.85239680216955 264.5393378176477Q273.20426877737134 263.01329335024195 270.559125033868 263.01329335024195L270.559125033868 263.01329335024195Q268.05641210732256 263.01329335024195 266.22515874643557 265.9026042085302Q264.3939053855487 268.8122623263838 263.1934170711895 273.81768817947477Q261.97258149726485 278.8231140325656 261.3214691911718 285.6190987274126Q260.6907041446441 292.4150834222596 260.46688428942457 300.20808383581175L260.46688428942457 300.20808383581175Q260.32445347246664 305.57976036108005 260.2227171746396 311.1549094820024Q260.1006336172471 316.73005860292477 259.8971610215931 321.9796515708005Q259.6733411663736 327.24959179824174 259.32743775376156 331.9294614982861Q258.96118708158417 336.6093311983305 258.47285285201434 340.33287969880047L258.47285285201434 340.33287969880047Q257.9641713628791 346.7829609810355 257.2927117972206 350.9541491919446Q256.6009049719966 355.1456846624191 256.1125707424268 357.2821469167872L256.1125707424268 357.2821469167872Q255.66493103198775 359.15409479680494 254.6068735345864 359.86624888159423Q253.52846877761968 360.57840296638363 252.20589690586803 360.80222282160315Q250.88332503411635 361.0056954172572 249.52005864323388 361.0056954172572Q248.1567922523514 361.0056954172572 247.1597765336463 361.43298786813085L247.1597765336463 361.43298786813085Q245.9389409597217 361.9416693572661 244.65706360710084 361.9416693572661L244.65706360710084 361.9416693572661Q243.43622803317623 361.9416693572661 242.6223376505598 361.37194608943463Q241.78810000837802 360.80222282160315 241.78810000837802 359.357567392459L241.78810000837802 359.357567392459Q241.78810000837802 358.8692331628892 241.86948904663967 358.50298249071176L241.86948904663967 358.50298249071176Q242.01191986359754 357.64839758896454 242.47990683360194 354.7794339902418Q242.9478938036064 351.9308176510843 243.5583115905687 347.8817129975677Q244.14838211796558 343.8529556036165 244.7994944240587 338.969613307918Q245.45060673015183 334.10661827178507 245.9389409597217 329.1825814569558Q246.44762244885695 324.23819738256105 246.81387312103433 319.59902220164753Q247.1597765336463 314.93949976116863 247.1597765336463 311.35838207765653L247.1597765336463 311.35838207765653Q247.1597765336463 305.4373295441221 246.7731786019035 300.8795434014702Q246.3662334105953 296.34210451838374 245.73546836406757 292.8016813540024Q245.08435605797445 289.261258189621 244.18907663709643 286.432989110029Q243.29379721621837 283.60472003043697 242.29678149751328 281.08165984432617Q241.29976577880817 278.5382523986499 240.26205554097226 275.9948449529736Q239.22434530313632 273.4514375072973 238.22732958443123 270.44004309161664L238.22732958443123 270.44004309161664Q236.92510497224498 266.5944110337541 236.39607622354433 262.8301680141533Q235.86704747484367 259.06592499455235 235.86704747484367 255.5661963493018L235.86704747484367 255.5661963493018Q235.86704747484367 251.98507866578964 236.31468718528268 248.89229521184728Q236.7826741552871 245.77916449833955 237.5355227592073 243.4799241674482Q238.28837136312745 241.20103109612225 239.1429562648747 239.87845922437057Q240.01788842618734 238.55588735261892 240.79108428967294 238.55588735261892L240.79108428967294 238.55588735261892Q241.7270582296818 238.55588735261892 242.23573971881706 239.6953338882819Q242.7240739483869 240.83478042394486 242.7240739483869 242.48290844874307L242.7240739483869 242.48290844874307Q242.7240739483869 243.05263171657458 242.68337942925606 243.84617483962558Q242.66303216969067 244.61937070311117 242.66303216969067 245.6977754600779L242.66303216969067 245.6977754600779Q242.66303216969067 247.488334301834 242.86650476534476 250.03174174751027Q243.09032462056427 252.57514919318652 243.86352048404984 255.8917525023484Q244.65706360710084 259.22870307107564 246.16276081494118 263.2981549841577Q247.66845802278155 267.36760689723974 250.23221272802323 272.2306019333728L250.23221272802323 272.2306019333728Q251.3920065232516 274.38741144730625 252.30763320369508 276.50352644210886Q253.24360714370394 278.5992941773461 254.03715026675494 280.674714653018L254.03715026675494 280.674714653018Q255.31902761937576 274.16359159208673 257.4351426141784 269.44302737291156Q259.53091034941565 264.7224631537364 261.97258149726485 261.44655436370533Q264.3939053855487 258.1502983141089 266.9780073503558 256.07487783843703Q269.5417620555975 253.99945736276524 271.92239142475046 252.88035808666768Q274.2826735343381 251.78160607013552 276.1342741547903 251.39500813839274Q277.9858747752427 250.98806294708453 279.0642795322094 250.98806294708453L279.0642795322094 250.98806294708453Q282.0756739478901 250.98806294708453 284.2121362022582 252.63619097188277Q286.36894571619166 254.28431899668098 287.89499018359743 257.17362985496925Q289.44138191056857 260.08328797282286 290.39770311014286 263.96961454981624Q291.3743715692826 267.876288386375 291.90340031798326 272.3526854907652Q292.4324290666839 276.8087353355901 292.6155544027726 281.65138311215765Q292.79867973886127 286.47368362915984 292.79867973886127 291.19424784833495L292.79867973886127 291.19424784833495Q292.79867973886127 301.00162695886274 292.47312358581473 308.10282054719084Q292.14756743276814 315.2243613950844 291.76096950102533 320.4943016225256Q291.3743715692826 325.74389459040145 291.04881541623604 329.5081376100023Q290.72325926318945 333.25203337003774 290.72325926318945 336.32446956441476L290.72325926318945 336.32446956441476Q290.72325926318945 337.11801268746575 291.04881541623604 337.5453051383393Q291.3743715692826 337.97259758921297 291.8016640201562 337.97259758921297L291.8016640201562 337.97259758921297Q292.5138181049455 337.97259758921297 293.0224995940808 337.34183254268527Q293.5108338236506 336.6907202365921 294.0602098319167 334.51356346309325Q294.58923858061735 332.31605943002893 295.2606981462759 328.10417669998907Q295.9525049714998 323.8922939699491 297.09195150716283 316.73005860292477L297.09195150716283 316.73005860292477Q298.0279254471717 310.78865880982494 298.80112131065727 305.0710788719448Q299.59466443370826 299.35349893406453 300.571332892848 294.1649477448849Q301.52765409242227 288.97639655570526 302.8095314450431 284.58138848957674Q304.11175605722934 280.1863804234481 306.0650929755087 276.99186067167875Q308.0387771533535 273.81768817947477 310.8263517138147 271.9864348185878Q313.61392627427585 270.1551814577009 317.6223364086617 270.1551814577009Z " fill="#ffffff" transform="matrix(1.0026712811199014,0,0,1.0026712811199014,0,-14.39347538991855)"/><path d="M589.5400190220478 312.9591251207891L589.5400190220478 312.9591251207891Q589.985062888755 312.9591251207891 590.2885018887825 313.24233485414817Q590.6121701554786 313.5255445875072 590.6121701554786 314.1526518542309L590.6121701554786 314.1526518542309Q590.6121701554786 314.43586158758995 590.4098774887935 315.16411518765614L590.4098774887935 315.16411518765614Q588.548784955291 320.70693425482654 586.8495265551367 325.1169143885606Q585.1300388883137 329.52689452229475 583.5116975548333 332.783806455924L583.5116975548333 332.783806455924Q581.6506050213309 336.48576225626044 579.3849271544583 338.7716693898015Q577.0990200209172 341.0373472566741 573.3363764205753 341.0373472566741L573.3363764205753 341.0373472566741Q571.839410687106 341.0373472566741 570.3829034869736 340.5113863232929Q568.9263962868413 339.98542538991177 567.7126402867309 338.58960598978496Q566.4988842866206 337.19378658965815 565.5076502198639 334.786503856106Q564.5164161531072 332.35899185588545 564.0106844863946 328.67726532221747L564.0106844863946 328.67726532221747Q562.8778455529582 330.94294318909004 561.5022554195 333.2288503226311Q560.1064360193731 335.4945281895037 558.4071776192186 337.2747036563322Q556.6876899523957 339.05487912316056 554.6243047522082 340.14725952325983Q552.5609195520208 341.2598691900276 550.0727197517946 341.2598691900276L550.0727197517946 341.2598691900276Q548.2318564849606 341.2598691900276 546.6337444181488 340.0865717232544Q545.0356323513369 338.9132742564811 543.8623348845636 336.8094305229566Q542.6890374177902 334.70558678943206 542.0012423510611 331.79257238916733Q541.3336765510005 328.8795579889026 541.3336765510005 325.3192070552457L541.3336765510005 325.3192070552457Q541.3336765510005 321.5565634549037 542.0012423510611 317.9355247212414Q542.6890374177902 314.2942567209105 543.8825641512321 310.9968862539441Q545.0963201513423 307.67928652030935 546.8360370848338 304.8876477200556Q548.5757540183251 302.0757796531335 550.6391392185128 300.01239445294595L550.6391392185128 300.01239445294595Q554.1994901521696 296.4520435192891 557.537319152473 294.7730143858032Q560.8953774194447 293.1142145189857 563.4442650196763 293.1142145189857L563.4442650196763 293.1142145189857Q563.8083918197094 293.1142145189857 564.0106844863946 293.1142145189857Q564.2332064197481 293.1142145189857 564.6580210197867 293.17490231899126L564.6580210197867 293.17490231899126Q564.9412307531458 289.6954684520084 565.2244404865048 285.8114492516554Q565.5076502198639 281.947659317971 566.0740696865821 277.53767918423694L566.0740696865821 277.53767918423694Q566.7820940199797 271.99486011706654 567.3687427533664 268.1512994500506Q567.9351622200845 264.30773878303467 568.4611231534657 261.5767877827865Q568.9870840868468 258.8256075158698 569.5939620869019 256.8835979156933Q570.200840086957 254.92135904884833 571.0504692870343 253.20187138202542L571.0504692870343 253.20187138202542Q571.5562009537468 252.14994951526313 572.163078953802 251.44192518186546Q572.7699569538572 250.71367158179928 573.4375227539178 250.14725211508116Q574.1253178206471 249.580832648363 574.9344884873872 248.91326684830236Q575.7436591541275 248.22547178157316 576.7551224875526 247.23423771481643L576.7551224875526 247.23423771481643Q578.5352979543811 245.454062247988 579.7692832211599 244.7055793812533Q581.0234977546072 243.9570965145186 581.7315220880049 243.9570965145186L581.7315220880049 243.9570965145186Q582.5002342214082 243.9570965145186 583.0464244214577 244.36168184788872Q583.5723853548388 244.74603791459032 583.5723853548388 245.8788768480266L583.5723853548388 245.8788768480266Q583.5723853548388 246.2430036480597 583.5116975548333 246.66781824809829Q583.4307804881594 247.0926328481369 583.2891756214798 247.59836451484952L583.2891756214798 247.59836451484952Q583.0059658881207 248.58959858160625 582.3586293547286 251.30032031518593Q581.7315220880049 253.9908127820971 580.9425806879333 257.87483198245Q580.1536392878616 261.73862191613455 579.3040100877843 266.6138751832442Q578.4543808877071 271.48912845035386 577.7463565543094 276.68804998415965L577.7463565543094 276.68804998415965Q576.9574151542377 282.6556836513687 576.3505371541826 288.58285878524066Q575.7436591541275 294.5302631857811 575.3593030874258 300.03262371961443Q574.9749470207242 305.55521352011635 574.7524250873707 310.39000825388905Q574.5501324206856 315.2248029876617 574.5501324206856 318.9874465880036L574.5501324206856 318.9874465880036Q574.5501324206856 321.4756463882298 574.7119665540337 323.5794901217543Q574.8940299540502 325.6833338552788 575.3188445540889 327.2409873887537Q575.7436591541275 328.81887018889705 576.492142020862 329.6684993889742Q577.2406248875968 330.5181285890515 578.3127760210275 330.5181285890515L578.3127760210275 330.5181285890515Q579.5265320211379 330.5181285890515 580.5582246212316 329.4864359889577Q581.5899172213253 328.45474338886396 582.6418390880876 326.4318167220135Q583.7139902215183 324.408890055163 584.9277462216287 321.4554171215612Q586.141502221739 318.5019441879595 587.6384679552084 314.7190713209491L587.6384679552084 314.7190713209491Q588.2655752219321 312.9591251207891 589.5400190220478 312.9591251207891ZM564.0106844863946 301.8532577197799L564.0106844863946 301.8532577197799Q564.0106844863946 298.7986384528357 561.3808798194889 298.7986384528357L561.3808798194889 298.7986384528357Q559.3174946193014 298.7986384528357 557.4766313524674 300.214687119631Q555.6357680856335 301.65096505309486 554.1994901521696 304.1998526533265Q552.7834414853743 306.7689695202266 551.9338122852971 310.309091187215Q551.0841830852198 313.86944212087184 551.0841830852198 318.1378173879264L551.0841830852198 318.1378173879264Q551.0841830852198 322.7703194550141 552.5406902853522 325.78448018862133Q553.9971974854845 328.81887018889705 557.0518167524287 328.81887018889705L557.0518167524287 328.81887018889705Q558.7510751525832 328.81887018889705 559.9648311526935 327.8074068554718Q561.1785871528039 326.81617278871505 561.9270700195385 325.2585192552402Q562.6755528862732 323.6806364550968 563.0599089529749 321.88023172159984Q563.4442650196763 320.0595977214344 563.5858698863559 318.4210271212855L563.5858698863559 318.4210271212855Q563.5858698863559 316.0137443877334 563.626328419693 313.62669092084985Q563.6667869530299 311.2396374539662 563.7274747530355 309.0346473870992Q563.8083918197094 306.8296573202322 563.869079619715 304.9887940533981Q563.949996686389 303.1277015198957 564.0106844863946 301.8532577197799ZM623.0396846250921 312.9591251207891L623.0396846250921 312.9591251207891Q623.4644992251307 312.9591251207891 623.7881674918268 313.24233485414817Q624.1118357585228 313.5255445875072 624.1118357585228 314.09196405422546L624.1118357585228 314.09196405422546Q624.1118357585228 314.6583835209436 623.9095430918378 315.16411518765614L623.9095430918378 315.16411518765614Q622.837391958407 318.1378173879264 621.5831774249598 320.7676220548321Q620.3491921581809 323.39742672173776 619.2770410247501 325.4608119219252L619.2770410247501 325.4608119219252Q618.0025972246344 327.8074068554718 616.788841224524 329.87079205565936L616.788841224524 329.87079205565936Q615.2918754910547 332.21738698920586 613.4712414908893 334.3212307227304Q611.6708367573923 336.4250744562549 609.5265344905308 338.02318652306684Q607.4024614903377 339.6212985898787 604.9142616901116 340.55184485663Q602.4260618898854 341.4621618567127 599.6546523563004 341.4621618567127L599.6546523563004 341.4621618567127Q597.5912671561128 341.4621618567127 595.1232966225552 340.754137523315Q592.6755553556661 340.0461131899173 590.5717116221416 338.12433285640935Q588.4880971552856 336.2025525229014 587.0922777551586 332.864723522598Q585.7166876217004 329.52689452229475 585.7166876217004 324.2672851884834L585.7166876217004 324.2672851884834Q585.7166876217004 321.8397731882629 586.1617314884074 319.3515733880367Q586.627004621783 316.8633735878106 587.4564045551917 314.57746645426954Q588.2655752219321 312.31178858739696 589.2972678220258 310.309091187215Q590.3289604221195 308.3266230537015 591.4011115555503 306.8296573202322L591.4011115555503 306.8296573202322Q593.2419748223842 304.28076972000054 595.3053600225717 302.03532111979644Q597.3687452227592 299.78987251959245 599.4725889562837 298.13107265277495Q601.5764326898084 296.4520435192891 603.5589008233218 295.52149725253787Q605.5413689568353 294.61118025245514 607.2608566236581 294.61118025245514L607.2608566236581 294.61118025245514Q609.9513490905694 294.61118025245514 611.9945050240883 296.6543361859741Q614.0174316909388 298.71772138616166 614.0174316909388 302.5612820531776L614.0174316909388 302.5612820531776Q614.0174316909388 305.91934032014944 612.297944024116 309.4999205204748Q610.5986856239615 313.1007299874687 608.0497980237299 316.4992467877775Q605.4806811568297 319.9179928547549 602.567666756565 322.83100725501953Q599.6546523563004 325.74402165528426 597.2271403560798 327.6658019887922L597.2271403560798 327.6658019887922Q598.5015841561956 330.8822553890846 600.5042815563775 332.35899185588545Q602.486749689891 333.8559575893548 604.5501348900785 333.8559575893548L604.5501348900785 333.8559575893548Q607.7463590237023 333.8559575893548 610.2750173572655 331.79257238916733Q612.8036756908286 329.7291871889798 614.8266023576791 326.7554849887095Q616.8495290245296 323.76155352177085 618.3869532913359 320.48441232147303Q619.9243775581424 317.2275003878437 621.1179042915842 314.7190713209491L621.1179042915842 314.7190713209491Q621.5427188916227 313.86944212087184 621.9877627583298 313.40416898749623Q622.4125773583685 312.9591251207891 623.0396846250921 312.9591251207891ZM595.3862770892458 316.3576419210979L595.3862770892458 316.3576419210979Q595.3862770892458 320.56532938814706 596.0133843559695 323.76155352177085L596.0133843559695 323.76155352177085Q597.4496622894333 322.34550485497545 598.9061694895656 320.52487085481Q600.362676689698 318.70423685464453 601.5359741564713 316.78245652113657Q602.7092716232446 314.8606761876286 603.4577544899793 312.8782080541151Q604.2062373567139 310.8957399206016 604.2062373567139 309.0346473870992L604.2062373567139 309.0346473870992Q604.2062373567139 306.2025500535085 602.9924813566037 304.62466725336515Q601.7787253564934 303.06701371989027 600.564969356383 303.06701371989027L600.564969356383 303.06701371989027Q599.8569450229854 303.06701371989027 598.9668572895712 303.9571014533044Q598.0767695561569 304.84718918671865 597.2675988894167 306.5464475868731Q596.438198956008 308.26593525369594 595.9122380226269 310.71367652058507Q595.3862770892458 313.16141778747414 595.3862770892458 316.3576419210979ZM665.0154129622399 315.16411518765614L665.0154129622399 315.16411518765614Q663.5791350287761 319.27065632136265 660.7470376951854 321.5970219882408Q657.8947110949262 323.9031583884503 654.2736723612638 323.9031583884503L654.2736723612638 323.9031583884503Q652.4125798277613 323.9031583884503 650.713321427607 323.39742672173776L650.713321427607 323.39742672173776Q648.9331459607785 327.38259225543317 646.586551027232 330.659733455731Q644.2399560936854 333.9368746560288 641.7112977601222 336.3036988562439Q639.182639426559 338.69075232312747 636.694439626333 340.00565465658036Q634.2062398261069 341.32055699003314 632.0821668259139 341.32055699003314L632.0821668259139 341.32055699003314Q631.0909327591571 341.32055699003314 630.4435962257648 340.794596056652Q629.7962596923728 340.2686351232708 629.0275475589696 339.19648398984015L629.0275475589696 339.19648398984015Q628.1576890922238 337.9220401897243 626.8832452921081 335.5754452561777Q625.6088014919922 333.2288503226311 624.435504025219 329.7089579223113Q623.2622065584457 326.1688362553229 622.432806625037 321.3745000548873Q621.6236359582967 316.58016385445154 621.6236359582967 310.39000825388905L621.6236359582967 310.39000825388905Q621.6236359582967 307.4769938536243 621.9473042249929 305.5147549867793Q622.2709724916889 303.57274538660283 622.6957870917275 302.27807231981853Q623.1206016917661 301.0036285197027 623.6061040918103 300.25514565296805Q624.1118357585228 299.5066627862333 624.5366503585615 299.08184818619475L624.5366503585615 299.08184818619475Q624.9614649586001 298.6570335861561 625.3255917586332 298.3333653194601Q625.6694892919977 298.00969705276395 625.9526990253569 298.00969705276395L625.9526990253569 298.00969705276395Q626.3977428920639 298.00969705276395 626.7416404254285 298.414282386134Q627.1057672254616 298.7986384528357 627.4496647588262 298.7986384528357L627.4496647588262 298.7986384528357Q627.7328744921853 298.7986384528357 628.2992939589034 298.4345116528026Q628.88594269229 298.090614119438 629.4725914256767 297.66579951939934Q630.0794694257318 297.2409849193608 630.686347425787 296.8768581193277Q631.2932254258421 296.51273131929463 631.6573522258752 296.51273131929463L631.6573522258752 296.51273131929463Q632.0012497592398 296.51273131929463 632.3249180259359 296.9173166526647Q632.648586292632 297.30167271936625 632.648586292632 298.292906786123L632.648586292632 298.292906786123Q632.648586292632 299.30437011954825 632.5069814259525 300.11354078628847Q632.3653765592729 300.9227114530287 632.1833131592564 302.096008919802Q632.0012497592398 303.2693063865753 631.8596448925603 304.9887940533981Q631.7180400258808 306.6880524535526 631.7180400258808 309.3987741871323L631.7180400258808 309.3987741871323Q631.7180400258808 317.3691052545233 633.3566106260296 324.2672851884834Q634.9951812261786 331.16546512244366 637.9081956264432 335.5754452561777L637.9081956264432 335.5754452561777Q638.6162199598409 334.5639819227525 639.5063076932552 333.18839178929414Q640.3963954266694 331.79257238916733 641.2864831600835 329.87079205565936Q642.1765708934978 327.9490117221514 642.9250537602325 325.3596655885827Q643.6735366269672 322.7703194550141 644.2399560936854 319.3515733880367L644.2399560936854 319.3515733880367Q642.9655122935695 317.99621252124683 641.7112977601222 316.19580778774997Q640.4773124933433 314.3751737875845 639.4051613599127 312.08926665404346L639.4051613599127 312.08926665404346Q638.4746150931614 310.16748632053543 638.0498004931228 308.14455965368495Q637.6249858930842 306.12163298683447 637.6249858930842 304.28076972000054L637.6249858930842 304.28076972000054Q637.6249858930842 302.0757796531335 638.2318638931393 300.0730822529515Q638.8387418931945 298.090614119438 639.8704344932883 296.6341069193056Q640.902127093382 295.17759971917326 642.3181757601774 294.3077412524276Q643.7342244269727 293.4581120523503 645.3727950271216 293.4581120523503L645.3727950271216 293.4581120523503Q649.2972727608116 293.4581120523503 651.8866188943803 296.97800445267023Q654.4759650279489 300.49789685299004 654.4759650279489 306.8296573202322L654.4759650279489 306.8296573202322Q654.4759650279489 310.39000825388905 653.8083992278882 313.7682957875293Q653.120604161159 317.14658332116966 651.9877652277228 320.34280745479344L651.9877652277228 320.34280745479344Q653.2622090278386 320.70693425482654 654.4152772279433 320.70693425482654L654.4152772279433 320.70693425482654Q656.964164828175 320.70693425482654 659.0275500283625 319.2099685213572Q661.0909352285499 317.7130027878878 662.2237741619863 314.7190713209491L662.2237741619863 314.7190713209491Q662.8711106953784 312.9591251207891 664.0039496288147 312.9591251207891L664.0039496288147 312.9591251207891Q664.4287642288533 312.9591251207891 664.8333495622235 313.24233485414817Q665.217705628925 313.5255445875072 665.217705628925 314.09196405422546L665.217705628925 314.09196405422546Q665.217705628925 314.516778654264 665.0154129622399 315.16411518765614ZM641.3876294934262 304.341457520006L641.3876294934262 304.341457520006Q641.3876294934262 306.6880524535526 642.2777172268403 309.3583156537952Q643.1678049602546 312.0285788540379 644.8063755604035 314.3751737875845L644.8063755604035 314.3751737875845Q644.947980427083 312.9591251207891 645.0288974937571 311.34078378730874Q645.0895852937625 309.7426717204969 645.0895852937625 307.9624962536684L645.0895852937625 307.9624962536684Q645.0895852937625 304.42237458668 644.6647706937239 302.03532111979644Q644.2399560936854 299.64826765291286 643.107117160249 299.7291847195869L643.107117160249 299.7291847195869Q642.5406976935309 299.7291847195869 642.1765708934978 300.1944578529625Q641.8124440934647 300.6395017196696 641.6506099601166 301.3677553197358Q641.4685465601001 302.0757796531335 641.4280880267631 302.84449178653665Q641.3876294934262 303.6334331866084 641.3876294934262 304.341457520006ZM697.6452200985385 312.9591251207891L697.6452200985385 312.9591251207891Q698.0700346985772 312.9591251207891 698.3937029652732 313.24233485414817Q698.7173712319693 313.5255445875072 698.7173712319693 314.09196405422546L698.7173712319693 314.09196405422546Q698.7173712319693 314.6583835209436 698.4948492986157 315.16411518765614L698.4948492986157 315.16411518765614Q697.4429274318535 318.1378173879264 696.1887128984062 320.7676220548321Q694.9547276316273 323.39742672173776 693.8825764981966 325.4608119219252L693.8825764981966 325.4608119219252Q692.6081326980808 327.8074068554718 691.3943766979705 329.87079205565936L691.3943766979705 329.87079205565936Q689.8974109645011 332.21738698920586 688.0767769643356 334.3212307227304Q686.2763722308387 336.4250744562549 684.1320699639772 338.02318652306684Q682.0079969637841 339.6212985898787 679.519797163558 340.55184485663Q677.0315973633319 341.4621618567127 674.2601878297468 341.4621618567127L674.2601878297468 341.4621618567127Q672.1968026295592 341.4621618567127 669.7288320960016 340.754137523315Q667.2810908291125 340.0461131899173 665.177247095588 338.12433285640935Q663.0936326287319 336.2025525229014 661.6978132286051 332.864723522598Q660.3222230951468 329.52689452229475 660.3222230951468 324.2672851884834L660.3222230951468 324.2672851884834Q660.3222230951468 321.8397731882629 660.7672669618539 319.3515733880367Q661.2325400952295 316.8633735878106 662.0619400286382 314.57746645426954Q662.8711106953784 312.31178858739696 663.9028032954722 310.309091187215Q664.934495895566 308.3266230537015 666.0066470289967 306.8296573202322L666.0066470289967 306.8296573202322Q667.8475102958307 304.28076972000054 669.9108954960182 302.03532111979644Q671.9742806962057 299.78987251959245 674.0781244297302 298.13107265277495Q676.1617388965863 296.4520435192891 678.1644362967681 295.52149725253787Q680.1469044302817 294.61118025245514 681.8663920971046 294.61118025245514L681.8663920971046 294.61118025245514Q684.5568845640157 294.61118025245514 686.6000404975348 296.6543361859741Q688.6229671643853 298.71772138616166 688.6229671643853 302.5612820531776L688.6229671643853 302.5612820531776Q688.6229671643853 305.91934032014944 686.9034794975623 309.4999205204748Q685.204221097408 313.1007299874687 682.6351042305077 316.4992467877775Q680.0862166302762 319.9179928547549 677.1732022300114 322.83100725501953Q674.2601878297468 325.74402165528426 671.8326758295261 327.6658019887922L671.8326758295261 327.6658019887922Q673.1071196296419 330.8822553890846 675.109817029824 332.35899185588545Q677.0922851633375 333.8559575893548 679.1556703635249 333.8559575893548L679.1556703635249 333.8559575893548Q682.3518944971487 333.8559575893548 684.8805528307118 331.79257238916733Q687.409211164275 329.7291871889798 689.4321378311255 326.7554849887095Q691.455064497976 323.76155352177085 692.9924887647824 320.48441232147303Q694.5299130315888 317.2275003878437 695.7234397650305 314.7190713209491L695.7234397650305 314.7190713209491Q696.1482543650691 313.86944212087184 696.5730689651077 313.40416898749623Q697.0181128318148 312.9591251207891 697.6452200985385 312.9591251207891ZM669.9918125626922 316.3576419210979L669.9918125626922 316.3576419210979Q669.9918125626922 320.56532938814706 670.6189198294159 323.76155352177085L670.6189198294159 323.76155352177085Q672.0551977628797 322.34550485497545 673.5117049630121 320.52487085481Q674.9682121631445 318.70423685464453 676.1415096299177 316.78245652113657Q677.314807096691 314.8606761876286 678.0632899634256 312.8782080541151Q678.8117728301604 310.8957399206016 678.8117728301604 309.0346473870992L678.8117728301604 309.0346473870992Q678.8117728301604 306.2025500535085 677.59801683005 304.62466725336515Q676.3842608299398 303.06701371989027 675.1705048298295 303.06701371989027L675.1705048298295 303.06701371989027Q674.4624804964318 303.06701371989027 673.5723927630175 303.9571014533044Q672.6823050296034 304.84718918671865 671.8731343628632 306.5464475868731Q671.0437344294544 308.26593525369594 670.5177734960733 310.71367652058507Q669.9918125626922 313.16141778747414 669.9918125626922 316.3576419210979ZM722.5474473674682 312.9591251207891L722.5474473674682 312.9591251207891Q722.9722619675067 312.9591251207891 723.2959302342028 313.26256412081676Q723.5993692342304 313.5862323875128 723.5993692342304 314.1526518542309L723.5993692342304 314.1526518542309Q723.5993692342304 314.6583835209436 723.3970765675454 315.16411518765614L723.3970765675454 315.16411518765614Q721.98102790075 319.27065632136265 720.6661255672972 322.729860921677Q719.3309939671758 326.1688362553229 718.0565501670601 329.1020799222561L718.0565501670601 329.1020799222561Q716.8427941669497 331.87348945584125 715.7504137668504 333.8559575893548Q714.6378041000827 335.8586549895368 713.606111499989 337.19378658965815Q712.5744188998951 338.549147456448 711.5629555664699 339.3785473898567Q710.5312629663762 340.1877180565969 709.4591118329454 340.55184485663L709.4591118329454 340.55184485663Q708.3869606995147 340.8957423899945 706.9709120327193 340.8957423899945L706.9709120327193 340.8957423899945Q705.3930292325759 340.8957423899945 703.552165965742 340.22817658993387Q701.711302698908 339.54038152320464 700.0929613654276 337.6186011896967Q698.4948492986157 335.7170501228573 697.4429274318535 332.25784552254294Q696.3707762984227 328.81887018889705 696.3707762984227 323.2558218550582L696.3707762984227 323.2558218550582Q696.3707762984227 321.77908538825733 696.5528396984392 318.21873445460045Q696.7349030984558 314.6583835209436 697.0383420984833 309.6415253871544Q697.3620103651795 304.62466725336515 697.8272834985551 298.292906786123Q698.2925566319307 291.961146318881 698.8589760986488 284.92136151824127L698.8589760986488 284.92136151824127Q699.2231028986819 280.59229845118114 699.749063832063 275.4338354507124Q700.2750247654442 270.2753724502436 700.8414442321623 265.3798899164654Q701.428092965549 260.46417811601873 701.9945124322671 256.3374077156436Q702.5609318989852 252.21063731526866 702.9857464990239 249.86404238172207L702.9857464990239 249.86404238172207Q703.4712488990679 247.37584258149596 704.9075268325319 245.9597939147006Q706.3235754993271 244.54374524790526 708.1037509661555 242.90517464775635L708.1037509661555 242.90517464775635Q708.7510874995478 242.2578381143642 709.4591118329454 241.50935524762951Q710.1671361663431 240.76087238089482 710.8751604997408 240.13376511417118Q711.5831848331384 239.486428580779 712.2709798998676 239.0211554474034Q712.9385456999282 238.5558823140278 713.5858822333205 238.5558823140278L713.5858822333205 238.5558823140278Q714.5771163000773 238.5558823140278 714.5771163000773 239.54711638078453L714.5771163000773 239.54711638078453Q714.5771163000773 240.33605778085624 714.212989500044 242.39944298104373Q713.8690919666794 244.46282818123123 713.2217554332874 249.01441318164487Q712.5744188998951 253.5659981820585 711.7045604331495 261.2733487827589Q710.8144726997352 269.0009286501278 709.80300936631 281.0980301178938L709.80300936631 281.0980301178938Q709.600716699625 283.50531285144586 709.3175069662659 286.84314185174924Q709.0342972329069 290.2012001187211 708.7510874995478 293.9233851857259Q708.4678777661886 297.66579951939934 708.204897299498 301.5295894530839Q707.9621460994761 305.41360865343677 707.7396241661224 308.85258398708265Q707.5373314994374 312.31178858739696 707.3957266327579 315.16411518765614Q707.2541217660784 317.99621252124683 707.2541217660784 319.7157001880698L707.2541217660784 319.7157001880698Q707.2541217660784 324.611182721848 708.2858143661722 327.42305078877024Q709.3175069662659 330.23491885569246 711.724789699818 330.23491885569246L711.724789699818 330.23491885569246Q713.0801505666078 330.23491885569246 714.1523017000386 329.0211628555821Q715.2244528334693 327.8074068554718 716.215686900226 325.7237923886158Q717.2069209669828 323.61994865509126 718.2790721004136 320.80808058816905Q719.3309939671758 317.99621252124683 720.6256670339602 314.7190713209491L720.6256670339602 314.7190713209491Q720.9695645673248 313.86944212087184 721.4752962340374 313.40416898749623Q721.98102790075 312.9591251207891 722.5474473674682 312.9591251207891ZM736.121285302035 334.84719165611153L736.121285302035 334.84719165611153Q737.8407729688579 334.84719165611153 739.1152167689737 333.7143527226753Q740.3896605690895 332.58151378923895 741.2797483025038 330.72042125573654Q742.169836035918 328.8795579889026 742.7362555026361 326.4318167220135Q743.3026749693543 323.9638461884559 743.5858847027134 321.3340415215502L743.5858847027134 321.3340415215502Q741.5224995025259 319.9179928547549 739.5804899023494 317.65231498788233Q737.6182510355044 315.3664078543413 736.0605975020294 312.08926665404346L736.0605975020294 312.08926665404346Q735.1300512352782 310.16748632053543 734.7052366352397 308.14455965368495Q734.280422035201 306.12163298683447 734.280422035201 304.28076972000054L734.280422035201 304.28076972000054Q734.280422035201 301.9341747864539 734.9075293019247 299.87078958626637Q735.5548658353168 297.80740438607893 736.8090803687642 296.3104386526095Q738.0430656355429 294.81347291914017 739.883928902377 293.9233851857259Q741.7450214358794 293.0332974523117 744.1523041694314 293.0332974523117L744.1523041694314 293.0332974523117Q747.2271527030442 293.0332974523117 749.1691623032207 294.48980465244404Q751.1314011700657 295.9463118525764 752.264240103502 298.1917604527805Q753.3970790369383 300.4372090529846 753.8623521703139 303.06701371989027Q754.3276253036895 305.6968183867958 754.3276253036895 307.9624962536684L754.3276253036895 307.9624962536684Q754.3276253036895 310.95642772060717 753.9432692369879 314.09196405422546Q753.5386839036178 317.2275003878437 752.6890547035406 320.4237245214675L752.6890547035406 320.4237245214675Q755.3188593704463 320.201202588114 757.3822445706337 318.9672173213351Q759.4456297708213 317.7130027878878 760.8819077042851 314.7190713209491L760.8819077042851 314.7190713209491Q761.7315369043623 312.9591251207891 762.641853904445 312.9591251207891L762.641853904445 312.9591251207891Q763.1475855711576 312.9591251207891 763.5319416378593 313.24233485414817Q763.9365269712293 313.5255445875072 763.9365269712293 314.1526518542309L763.9365269712293 314.1526518542309Q763.9365269712293 314.6583835209436 763.7140050378757 315.16411518765614L763.7140050378757 315.16411518765614Q762.2979563710805 319.2099685213572 758.9803566374457 321.5565634549037Q755.6829861704794 323.9031583884503 751.6371328367783 323.9031583884503L751.6371328367783 323.9031583884503Q750.423376836668 327.38259225543317 748.6836599031766 330.47767005571444Q746.9439429696852 333.5727478559957 744.5973480361386 335.9193427895423Q742.250753102592 338.26593772308894 739.2568216356533 339.6212985898787Q736.2628901687145 340.97665945666853 732.6418514350521 340.97665945666853L732.6418514350521 340.97665945666853Q730.7200711015441 340.97665945666853 728.2925591013236 340.4102399899504Q725.8852763677714 339.8235912565638 723.74097410091 338.02318652306684Q721.616901100717 336.2025525229014 720.1603939005845 332.9051820559351Q718.7038867004521 329.5875823223002 718.7038867004521 324.12568032180394L718.7038867004521 324.12568032180394Q718.7038867004521 319.63478312139586 720.3626865672696 314.6583835209436Q722.0417157007555 309.68198392049135 725.945964167777 304.7662721200446L725.945964167777 304.7662721200446Q727.4429299012463 302.9254088532107 728.6971444346937 302.13646745313895Q729.9311297014725 301.3677553197358 730.7200711015441 301.3677553197358L730.7200711015441 301.3677553197358Q732.277724635019 301.3677553197358 732.277724635019 303.2693063865753L732.277724635019 303.2693063865753Q732.277724635019 304.13916485332095 731.7113051683009 305.41360865343677Q731.1448857015828 306.6880524535526 730.4975491681906 308.6907498537346Q729.870441901467 310.6732179872481 729.3040224347488 313.40416898749623Q728.7376029680306 316.1553492544129 728.7376029680306 319.85730505474936L728.7376029680306 319.85730505474936Q728.7376029680306 326.95777765539464 730.7605296348812 330.9024846557531Q732.7834563017317 334.84719165611153 736.121285302035 334.84719165611153ZM744.010699302752 313.95035918754587L744.010699302752 313.95035918754587Q744.010699302752 306.6880524535526 742.6755677026306 303.53228685326576Q741.3202068358407 300.35629198631057 739.6816362356919 301.0036285197027L739.6816362356919 301.0036285197027Q738.9736119022942 301.2868382530618 738.8724655689516 302.27807231981853Q738.7510899689407 303.2693063865753 738.7510899689407 304.1998526533265L738.7510899689407 304.1998526533265Q738.7510899689407 305.7575061868014 739.1759045689793 307.4769938536243Q739.6007191690178 309.17625225377867 740.288514235747 310.8957399206016Q740.9560800358076 312.594998320756 741.9270848358959 314.1324225875624Q742.8778603693156 315.64961758770033 743.9500115027464 316.92406138781615L743.9500115027464 316.92406138781615Q744.010699302752 316.1553492544129 744.010699302752 315.4473249210152Q744.010699302752 314.7190713209491 744.010699302752 313.95035918754587ZM773.2419896387416 287.9152929851799L773.2419896387416 287.9152929851799Q773.8084091054598 287.9152929851799 774.5973505055315 288.34010758521856L774.5973505055315 288.34010758521856Q775.1637699722496 288.70423438525165 775.1637699722496 289.75615625201397L775.1637699722496 289.75615625201397Q775.1637699722496 290.82830738544465 774.7389553722111 292.22412678557157Q774.3141407721724 293.5997169190299 774.1725359054929 294.61118025245514L774.1725359054929 294.61118025245514Q773.6668042387803 296.8768581193277 773.2419896387416 299.64826765291286Q772.817175038703 302.419677186498 772.4732775053385 305.4742964534423L772.4732775053385 305.4742964534423Q775.6695016389623 300.0730822529515 779.1084769726081 297.90855071942144Q782.5676815729224 295.7440191858914 785.2581740398336 295.7440191858914L785.2581740398336 295.7440191858914Q788.0498128400873 295.7440191858914 790.1334273069433 296.81617031932217Q792.2372710404679 297.8680921860845 793.5926319072577 299.7494139862554Q794.9479927740475 301.65096505309486 795.6155585741081 304.28076972000054Q796.2831243741689 306.9105743869062 796.2831243741689 310.10679852053L796.2831243741689 310.10679852053Q796.2831243741689 317.7939198545618 794.3006562406554 323.1951340550526Q792.3181881071419 328.59634825554343 789.4658615068827 332.1566991892004L789.4658615068827 332.1566991892004Q792.803690507186 331.08454805576963 796.2831243741689 328.0299287888253L796.2831243741689 328.0299287888253Q797.7800901076382 326.6745679220356 799.9243923744998 323.53903158841723Q802.0484653746928 320.4237245214675 804.3343725082339 314.7190713209491L804.3343725082339 314.7190713209491Q805.103084641637 312.9591251207891 806.3168406417474 312.9591251207891L806.3168406417474 312.9591251207891Q807.308074708504 312.9591251207891 807.308074708504 314.09196405422546L807.308074708504 314.09196405422546Q807.308074708504 314.516778654264 807.105782041819 315.16411518765614L807.105782041819 315.16411518765614Q805.103084641637 320.70693425482654 802.8374067747644 324.408890055163Q800.5514996412234 328.09061658883087 798.2453632410138 330.3765237223719Q795.9392268408043 332.6422015892445 793.6937782406002 333.7143527226753Q791.4483296403962 334.786503856106 789.6074663735621 335.2113184561446L789.6074663735621 335.2113184561446L785.9864276398998 335.8586549895368Q782.709286439602 338.63006452312203 779.7153549726632 339.76290345655826Q776.7416527723931 340.8957423899945 775.4469797056088 340.8957423899945L775.4469797056088 340.8957423899945Q774.3950578388465 340.8957423899945 773.6465749721118 340.61253265663544Q772.898092105377 340.3293229232764 772.3923604386645 339.3380888565196L772.3923604386645 339.3380888565196Q772.0484629052999 338.549147456448 771.6438775719298 337.3758499896747Q771.2595215052281 336.2025525229014 771.2595215052281 335.3529233228242L771.2595215052281 335.3529233228242Q771.2595215052281 333.5120600559903 772.8576335720401 332.864723522598Q774.455745638852 332.21738698920586 776.9439454390781 332.21738698920586L776.9439454390781 332.21738698920586Q777.7935746391553 332.21738698920586 778.6836623725695 332.2983040558799Q779.5737501059837 332.35899185588545 780.5649841727404 332.5005967225649L780.5649841727404 332.5005967225649Q781.6371353061712 330.8013383224106 782.6081401062595 328.35359705552145Q783.5589156396792 325.88562652196384 784.2264814397399 323.0130706550361Q784.914276506469 320.1405147881084 785.2986325731706 316.90383212114756Q785.7032179065408 313.6671494541868 785.7032179065408 310.309091187215L785.7032179065408 310.309091187215Q785.7032179065408 303.1277015198957 782.2035547728894 303.1277015198957L782.2035547728894 303.1277015198957Q780.3626915060554 303.1277015198957 778.825267239249 304.48306238668556Q777.3080722391112 305.8384232534754 776.0133991723269 307.9624962536684Q774.7389553722111 310.10679852053 773.7881798387913 312.7366031874356Q772.817175038703 315.3664078543413 772.1091507053054 317.99621252124683Q771.4011263719077 320.6260171881525 771.0167703052061 322.9726121216991Q770.6121849718361 325.3192070552457 770.5514971718305 326.81617278871505L770.5514971718305 326.81617278871505L770.409892305151 326.95777765539464Q770.3289752384769 327.9490117221514 770.28851670514 328.81887018889705Q770.2682874384715 329.6684993889742 770.2682874384715 330.4372115223775L770.2682874384715 330.4372115223775Q770.1873703717974 330.4372115223775 770.0457655051179 336.62736712294003Q769.9041606384383 342.81752272350246 769.1152192383666 355.6226485246662L769.1152192383666 355.6226485246662Q768.771321705002 361.81280412522875 768.447653438306 366.2227842589628Q768.1239851716099 370.63276439269686 767.8812339715878 373.6469251263041Q767.6384827715658 376.68131512657993 767.3552730382067 378.6030954600878Q767.0518340381791 380.5046465269273 766.76862430482 381.71840252703765L766.76862430482 381.71840252703765Q766.485414571461 382.79055366046833 765.7369317047263 383.3974316605235Q765.0086781046601 384.0043096605787 764.1185903712459 384.3482071939432Q763.2285026378318 384.7123339939763 762.43956123776 384.91462666066144Q761.6506198376883 385.13714859401495 761.2258052376498 385.50127539404804L761.2258052376498 385.50127539404804Q759.3040249041418 387.11961672752847 758.1307274373685 387.84787032759465Q756.9574299705952 388.55589466099224 756.3303227038715 388.55589466099224L756.3303227038715 388.55589466099224Q755.7436739704848 388.55589466099224 755.3188593704463 388.0097044609426Q754.8940447704076 387.48374352756156 754.8940447704076 386.4925094608048L754.8940447704076 386.4925094608048Q754.8940447704076 385.9260899940867 755.1165667037612 384.91462666066144L755.1165667037612 384.91462666066144Q755.3188593704463 383.7817877272251 755.7436739704848 380.3630416602478L755.7436739704848 380.3630416602478Q755.9661959038384 378.88630519344696 756.2089471038605 376.78246145992233Q756.471927570551 374.6786177263978 756.8158251039156 371.72514479279613Q757.1799519039487 368.77167185919444 757.6047665039873 364.9078819255099Q758.029581104026 361.023862725157 758.5960005707441 356.04746312470473L758.5960005707441 356.04746312470473Q758.676917637418 355.2585217246331 758.8792103041031 352.38596585770534Q759.1017322374566 349.5134099907777 759.4254005041528 345.30572252372866Q759.7288395041803 341.1182643233481 760.1334248375504 336.02048912288484Q760.517780904252 330.94294318909004 760.9425955042907 325.6833338552788Q761.3674101043292 320.4237245214675 761.7922247043679 315.40686638767824Q762.2170393044064 310.39000825388905 762.641853904445 306.36438418685657Q763.0868977711522 302.35898938649257 763.4712538378537 299.7291847195869Q763.8556099045553 297.0993800526812 764.1388196379144 296.6543361859741L764.1388196379144 296.6543361859741Q764.9277610379861 295.2382875191788 766.0201414380854 293.88292665238896Q767.1327511048532 292.5477950522676 768.771321705002 291.2531219854833L768.771321705002 291.2531219854833Q769.2568241050462 290.82830738544465 769.8434728384328 290.26188791872653Q770.409892305151 289.6954684520084 771.0167703052061 289.16950751862726Q771.6034190385927 288.6233173185776 772.1496092386424 288.279419785213Q772.6755701720235 287.9152929851799 773.2419896387416 287.9152929851799ZM839.7355891781176 312.9591251207891L839.7355891781176 312.9591251207891Q840.1806330448246 312.9591251207891 840.4840720448522 313.24233485414817Q840.8077403115483 313.5255445875072 840.8077403115483 314.09196405422546L840.8077403115483 314.09196405422546Q840.8077403115483 314.6583835209436 840.6054476448633 315.16411518765614L840.6054476448633 315.16411518765614Q839.5332965114326 318.1378173879264 838.2790819779852 320.7676220548321Q837.0450967112064 323.39742672173776 835.9729455777756 325.4608119219252L835.9729455777756 325.4608119219252Q834.6985017776599 327.8074068554718 833.4847457775495 329.87079205565936L833.4847457775495 329.87079205565936Q831.9877800440802 332.21738698920586 830.1873753105832 334.3212307227304Q828.3667413104178 336.4250744562549 826.2224390435563 338.02318652306684Q824.0983660433633 339.6212985898787 821.6101662431372 340.55184485663Q819.121966442911 341.4621618567127 816.3505569093259 341.4621618567127L816.3505569093259 341.4621618567127Q814.2871717091383 341.4621618567127 811.8394304422492 340.754137523315Q809.3714599086916 340.0461131899173 807.2878454418355 338.12433285640935Q805.1840017083111 336.2025525229014 803.7881823081842 332.864723522598Q802.4125921747259 329.52689452229475 802.4125921747259 324.2672851884834L802.4125921747259 324.2672851884834Q802.4125921747259 321.8397731882629 802.8778653081015 319.3515733880367Q803.3229091748085 316.8633735878106 804.1523091082173 314.57746645426954Q804.9614797749575 312.31178858739696 805.9931723750512 310.309091187215Q807.024864975145 308.3266230537015 808.0970161085758 306.8296573202322L808.0970161085758 306.8296573202322Q809.9378793754097 304.28076972000054 812.0012645755972 302.03532111979644Q814.0646497757848 299.78987251959245 816.1684935093092 298.13107265277495Q818.2723372428338 296.4520435192891 820.2548053763473 295.52149725253787Q822.2575027765292 294.61118025245514 823.9567611766837 294.61118025245514L823.9567611766837 294.61118025245514Q826.6674829102633 294.61118025245514 828.6904095771139 296.6543361859741Q830.7133362439644 298.71772138616166 830.7133362439644 302.5612820531776L830.7133362439644 302.5612820531776Q830.7133362439644 305.91934032014944 829.0140778438099 309.4999205204748Q827.294590176987 313.1007299874687 824.7457025767553 316.4992467877775Q822.1765857098552 319.9179928547549 819.2635713095905 322.83100725501953Q816.3505569093259 325.74402165528426 813.9230449091052 327.6658019887922L813.9230449091052 327.6658019887922Q815.2177179758895 330.8822553890846 817.2001861094029 332.35899185588545Q819.1826542429164 333.8559575893548 821.2460394431041 333.8559575893548L821.2460394431041 333.8559575893548Q824.4624928433964 333.8559575893548 826.9709219102908 331.79257238916733Q829.4995802438541 329.7291871889798 831.5225069107046 326.7554849887095Q833.5656628442237 323.76155352177085 835.0828578443615 320.48441232147303Q836.6202821111679 317.2275003878437 837.8340381112781 314.7190713209491L837.8340381112781 314.7190713209491Q838.2588527113166 313.86944212087184 838.6836673113553 313.40416898749623Q839.1084819113939 312.9591251207891 839.7355891781176 312.9591251207891ZM812.0821816422713 316.3576419210979L812.0821816422713 316.3576419210979Q812.0821816422713 320.56532938814706 812.709288908995 323.76155352177085L812.709288908995 323.76155352177085Q814.1455668424587 322.34550485497545 815.6020740425911 320.52487085481Q817.0585812427234 318.70423685464453 818.2318787094968 316.78245652113657Q819.4051761762701 314.8606761876286 820.1536590430047 312.8782080541151Q820.9021419097394 310.8957399206016 820.9021419097394 309.0346473870992L820.9021419097394 309.0346473870992Q820.9021419097394 306.2025500535085 819.6883859096291 304.62466725336515Q818.4746299095189 303.06701371989027 817.2608739094085 303.06701371989027L817.2608739094085 303.06701371989027Q816.5528495760109 303.06701371989027 815.6627618425966 303.9571014533044Q814.7726741091824 304.84718918671865 813.9635034424423 306.5464475868731Q813.154332775702 308.26593525369594 812.6081425756524 310.71367652058507Q812.0821816422713 313.16141778747414 812.0821816422713 316.3576419210979ZM872.5272304477642 315.16411518765614L872.5272304477642 315.16411518765614Q870.8886598476153 320.70693425482654 869.1894014474608 325.40012412191976Q867.4901430473064 330.09331398901287 865.5683627137985 333.5120600559903Q863.6465823802905 336.9105768562991 861.3202167134125 338.83235718980706Q859.0140803132028 340.754137523315 856.1010659129381 340.754137523315L856.1010659129381 340.754137523315Q852.5407149792812 340.754137523315 850.3761834457512 337.17355732298967Q848.2116519122212 333.5727478559957 848.2116519122212 327.6658019887922L848.2116519122212 327.6658019887922Q848.2116519122212 325.1169143885606 848.4544031122432 322.83100725501953Q848.6971543122653 320.56532938814706 849.0208225789613 318.4210271212855Q849.3444908456574 316.2969541210925 849.5872420456794 314.2942567209105Q849.85022251237 312.31178858739696 849.85022251237 310.39000825388905L849.85022251237 310.39000825388905Q849.85022251237 308.3266230537015 849.3444908456574 307.67928652030935Q848.8387591789448 307.0521792535857 848.0700470455416 307.0521792535857L848.0700470455416 307.0521792535857Q847.928442178862 307.0521792535857 847.7868373121826 307.09263778692275Q847.6452324455031 307.11286705359123 847.2406471121329 307.1533255869282Q846.8562910454314 307.19378412026526 846.1078081786966 307.2949304536078Q845.359325311962 307.3960767869503 844.0848815118461 307.53768165362976L844.0848815118461 307.53768165362976Q843.2959401117745 309.2571693204527 842.8104377117304 310.430466787226Q842.3047060450176 311.60376425399926 841.9405792449846 312.45339345407655Q841.59668171162 313.3030226541537 841.353930511598 313.9099006542089Q841.0909500449075 314.516778654264 840.8886573782223 315.16411518765614L840.8886573782223 315.16411518765614Q840.3222379115043 316.4992467877775 839.8771940447971 316.82291505447364Q839.4523794447584 317.14658332116966 838.8859599780403 317.14658332116966L838.8859599780403 317.14658332116966Q838.4611453780017 317.14658332116966 838.1374771113057 316.78245652113657Q837.8340381112781 316.43855898777196 837.8340381112781 315.7912224543798L837.8340381112781 315.7912224543798Q837.8340381112781 315.3664078543413 838.0363307779631 314.7595298542861Q838.2588527113166 314.1526518542309 838.5622917113443 313.2018763208112Q838.8859599780403 312.2308715207229 839.2905453114104 310.75413505392214Q839.674901378112 309.2571693204527 840.0997159781507 307.0521792535857L840.0997159781507 307.0521792535857Q838.6836673113553 306.4048427201935 837.6519747112616 304.01778925330996Q836.6202821111679 301.65096505309486 836.6202821111679 298.4345116528026L836.6202821111679 298.4345116528026Q836.6202821111679 295.8047069858969 837.510369844582 293.1142145189857Q838.4004575779962 290.4034927854061 839.715359911449 288.158044185202Q841.0302622449019 285.9328248516665 842.5474572450398 284.4965469182026Q844.0848815118461 283.0804982514072 845.2986375119565 283.0804982514072L845.2986375119565 283.0804982514072Q846.8562910454314 283.0804982514072 847.9486714455306 284.96182005157823Q849.0612811122984 286.84314185174924 849.0612811122984 289.27065385196977L849.0612811122984 289.27065385196977Q849.0612811122984 290.5450976520856 848.7780713789393 291.8599999855385Q848.4948616455802 293.17490231899126 848.1711933788843 294.287511985759Q847.8475251121881 295.3798923858583 847.564315378829 296.26998011927253Q847.28110564547 297.1600678526868 847.28110564547 297.66579951939934L847.28110564547 297.66579951939934Q847.28110564547 298.292906786123 847.7868373121826 298.292906786123L847.7868373121826 298.292906786123Q848.1307348455471 298.292906786123 849.0612811122984 297.9490092527584L849.0612811122984 297.9490092527584L852.5407149792812 296.37112645261504Q854.4624953127892 295.6024143192119 855.817856179579 295.6024143192119L855.817856179579 295.6024143192119Q858.0835340464516 295.6024143192119 858.8320169131863 297.0184629860072Q859.580499779921 298.4345116528026 859.580499779921 301.20592118638774L859.580499779921 301.20592118638774Q859.580499779921 302.419677186498 859.2972900465619 305.45406718677384Q859.0140803132028 308.4682279203811 858.6904120465067 312.1297251873804Q858.3869730464792 315.7912224543798 858.1239925797886 319.41226118804224Q857.8812413797666 323.05352918837315 857.8812413797666 325.3192070552457L857.8812413797666 325.3192070552457Q857.8812413797666 327.8074068554718 858.4072023131478 328.9807043222451Q858.9533925131973 330.1540017890184 860.7335679800258 330.1540017890184L860.7335679800258 330.1540017890184Q862.0080117801416 330.1540017890184 863.2419970469203 328.67726532221747Q864.4962115803677 327.18029958874814 865.629050513804 324.8943924552071Q866.7618894472403 322.6287145883345 867.793582047334 319.9179928547549Q868.8252746474277 317.2275003878437 869.6951331141735 314.7190713209491L869.6951331141735 314.7190713209491Q870.322240380897 312.9591251207891 871.5359963810074 312.9591251207891L871.5359963810074 312.9591251207891Q872.6688353144436 312.9591251207891 872.6688353144436 314.23356892090493L872.6688353144436 314.23356892090493Q872.6688353144436 314.43586158758995 872.6283767811067 314.6583835209436Q872.6081475144381 314.8606761876286 872.5272304477642 315.16411518765614Z " fill="#000000" transform="matrix(1.0026712811199014,0,0,1.0026712811199014,0,-14.39347538991855)"/></g></svg>